<svg xmlns="http://www.w3.org/2000/svg" version="1.0" width="602.28" height="181.499"><g fill-rule="evenodd"><path d="M373.642 141.938c-34.999 25.797-85.729 39.561-129.406 39.561-61.242 0-116.376-22.651-158.087-60.325-3.278-2.962-.341-7 3.591-4.693 45.015 26.191 100.673 41.947 158.166 41.947 38.775 0 81.43-8.022 120.65-24.67 5.925-2.516 10.88 3.88 5.086 8.18" fill="#f90"/><path d="M388.193 125.29c-4.457-5.715-29.573-2.7-40.846-1.363-3.434.42-3.959-2.57-.865-4.719 20.003-14.078 52.827-10.015 56.654-5.296 3.828 4.745-.996 37.648-19.793 53.351-2.884 2.412-5.637 1.128-4.352-2.07 4.22-10.54 13.685-34.161 9.202-39.903" fill="#f90"/><path d="M348.133 19.82V6.135c0-2.071 1.573-3.46 3.461-3.46h61.269c1.966 0 3.54 1.415 3.54 3.46v11.719c-.027 1.966-1.679 4.535-4.615 8.599l-31.749 45.329c11.798-.289 24.251 1.468 34.947 7.498 2.412 1.363 3.068 3.355 3.251 5.322v14.603c0 1.992-2.202 4.325-4.509 3.12-18.85-9.884-43.887-10.96-64.73.104-2.123 1.154-4.351-1.153-4.351-3.146V85.414c0-2.228.026-6.03 2.254-9.411l36.783-52.749h-32.011c-1.967 0-3.54-1.39-3.54-3.434" fill="#221f1f"/><path d="M124.635 105.208h-18.64c-1.783-.13-3.199-1.468-3.33-3.172V6.371c0-1.914 1.6-3.435 3.592-3.435h17.382c1.809.079 3.25 1.468 3.382 3.199V18.64h.34C131.897 6.554 140.417.918 151.901.918c11.666 0 18.954 5.636 24.198 17.722C180.608 6.554 190.859.918 201.843.918c7.813 0 16.36 3.224 21.577 10.46 5.899 8.049 4.693 19.741 4.693 29.992l-.026 60.378c0 1.913-1.6 3.46-3.592 3.46H205.88c-1.862-.13-3.356-1.625-3.356-3.46V51.044c0-4.037.367-14.104-.524-17.932-1.39-6.423-5.558-8.232-10.959-8.232-4.51 0-9.228 3.015-11.142 7.839-1.914 4.824-1.73 12.898-1.73 18.325v50.704c0 1.913-1.6 3.46-3.592 3.46h-18.614c-1.888-.13-3.356-1.625-3.356-3.46l-.026-50.704c0-10.67 1.757-26.374-11.483-26.374-13.397 0-12.872 15.31-12.872 26.374v50.704c0 1.913-1.6 3.46-3.592 3.46" fill="#221f1f"/><path d="M469.15.918c27.66 0 42.629 23.752 42.629 53.954 0 29.18-16.543 52.329-42.629 52.329-27.16 0-41.947-23.753-41.947-53.352 0-29.782 14.97-52.931 41.947-52.931m.158 19.531c-13.738 0-14.603 18.719-14.603 30.385 0 11.693-.184 36.652 14.445 36.652 14.446 0 15.128-20.135 15.128-32.404 0-8.075-.341-17.723-2.78-25.378-2.097-6.66-6.265-9.255-12.19-9.255" fill="#221f1f"/><path d="M547.644 105.208h-18.562c-1.861-.13-3.356-1.625-3.356-3.46L525.7 6.056c.157-1.756 1.704-3.12 3.592-3.12h17.277c1.625.079 2.962 1.18 3.33 2.674v14.63h.34C555.456 7.156 562.771.917 575.643.917c8.363 0 16.517 3.015 21.76 11.273 4.877 7.655 4.877 20.528 4.877 29.782v60.22c-.21 1.678-1.757 3.015-3.592 3.015h-18.693c-1.704-.13-3.12-1.39-3.303-3.015V50.231c0-10.46 1.206-25.77-11.667-25.77-4.535 0-8.704 3.04-10.775 7.655-2.621 5.846-2.962 11.666-2.962 18.115v51.517c-.026 1.913-1.652 3.46-3.644 3.46" fill="#221f1f"/><path d="M299.291 59.512c0 7.262.184 13.318-3.486 19.768-2.963 5.243-7.682 8.468-12.899 8.468-7.157 0-11.352-5.453-11.352-13.502 0-15.887 14.236-18.771 27.737-18.771v4.037m18.798 45.434c-1.232 1.101-3.015 1.18-4.404.446-6.188-5.139-7.315-7.525-10.697-12.427-10.225 10.434-17.487 13.554-30.726 13.554-15.704 0-27.895-9.674-27.895-29.048 0-15.127 8.18-25.43 19.873-30.464 10.12-4.457 24.25-5.244 35.051-6.476V38.12c0-4.43.341-9.674-2.28-13.501-2.255-3.435-6.607-4.85-10.46-4.85-7.106 0-13.424 3.644-14.97 11.194-.315 1.678-1.548 3.33-3.252 3.408l-18.063-1.94c-1.52-.34-3.225-1.573-2.779-3.906C251.629 6.607 271.449 0 289.172 0c9.07 0 20.92 2.412 28.078 9.28 9.071 8.469 8.206 19.768 8.206 32.064v29.048c0 8.73 3.618 12.558 7.026 17.277 1.18 1.678 1.442 3.697-.079 4.955-3.801 3.172-10.565 9.071-14.288 12.374l-.026-.052" fill="#221f1f"/><path d="M54.924 59.512c0 7.262.184 13.318-3.487 19.768-2.962 5.243-7.655 8.468-12.898 8.468-7.157 0-11.326-5.453-11.326-13.502 0-15.887 14.236-18.771 27.711-18.771v4.037m18.798 45.434c-1.232 1.101-3.015 1.18-4.405.446-6.187-5.139-7.288-7.525-10.696-12.427-10.225 10.434-17.46 13.554-30.726 13.554C12.217 106.519 0 96.845 0 77.471c0-15.127 8.206-25.43 19.872-30.464 10.12-4.457 24.25-5.244 35.052-6.476V38.12c0-4.43.341-9.674-2.254-13.501-2.281-3.435-6.633-4.85-10.46-4.85-7.106 0-13.45 3.644-14.997 11.194-.315 1.678-1.547 3.33-3.225 3.408l-18.09-1.94c-1.52-.34-3.198-1.573-2.778-3.906C7.288 6.607 27.082 0 44.805 0c9.07 0 20.92 2.412 28.078 9.28 9.07 8.469 8.206 19.768 8.206 32.064v29.048c0 8.73 3.618 12.558 7.026 17.277 1.206 1.678 1.468 3.697-.053 4.955-3.801 3.172-10.565 9.071-14.288 12.374l-.052-.052" fill="#221f1f"/></g></svg>