<svg version="1.1" id="svg2" xmlns="http://www.w3.org/2000/svg" x="0" y="0" viewBox="0 0 730.7 104.2" xml:space="preserve"><style>.st0{fill:#231f20}</style><g id="g11" transform="matrix(1.25 0 0 -1.25 -572.471 931.616)"><g id="g5385"><path id="path21" class="st0" d="M695.6 699.8h-25c0 7.3 6.2 12 12.7 11.9 6.8 0 12.3-4.8 12.3-11.9m-155.9 9.7c-2.7 20.6-20.4 35.8-40.2 35.8-23.1 0-41.6-17.9-41.6-41.8 0-25.4 23-40.7 41.2-40.7 16.3 0 36.5 11.2 39.8 32.4h-15.2c-1.8-7-10-17.1-24.2-17.1-15.2 0-26 10.8-26.5 25.1-.4 14.8 11.1 26.9 26.5 26.9 12.3 0 22.4-9.3 25.4-20.6h14.8m119.2-46v11.1c-1.6.5-11.3-2.1-11.3 5.9v30.9h9.8v10.7h-9.8v17.8h-14.9v-17.4h-7.4v-11.1h7.4V677c0-4.7 2.1-13.4 14.1-13.4h12.1m-84.4 44.9v13.9s-3.4.7-6.7 0c-4.4-1.1-8.8-4.6-10.9-7.4v5.7h-14.5v-57h14.9v26.1c-.9 17.9 9.4 20.9 17.2 18.7M712 688.8c.6 16.8-8.5 34.3-28.3 34.5-17.8.4-28.6-14.4-28.6-28.7 0-18.6 12.7-31.8 30.1-31.8 13.8 0 23.9 9.6 26.2 19.5h-15.3c-3-4.5-6.3-6.6-11.6-6.6-7.5 0-14.6 5.7-14.6 13.1H712m-85.2-25c-1 1.8-1.9 6.3-2.2 9.6v31.3c-.3 12.9-11.9 17.8-23.7 17.8-19 0-25-8.5-25.3-18.6h13c1.2 7.1 6.3 8.3 10.8 8.3 9.2 0 11.1-6.1 10.7-7.8-.4-5.1-7.7-4.3-16.8-5.8-16.1-2.3-20.8-11.3-20.8-18.4 0-11.9 11.3-17.9 21.3-17.9 9 0 14.8 4.1 17.4 6.2.7-2.3 1.1-4.9 1.1-4.6h14.5m-17.6 28.5c1-8.2-.3-11.6-2.3-14.4-3.4-4.1-11.5-4.2-11.5-4.2-1.2-.4-9.2.4-9.6 6.7-.1 7.1 8.9 8.3 23.4 11.9"/><path id="path23" class="st0" d="M750.7 724.5c0-4.8-4.9-7.7-7.7-9.8-2.2 2.9-5.9 5.9-6.3 10-.1 3.3 2.9 6.7 7 6.7 4.2-.1 7-3.5 7-6.9m31-60.7l-13.2 17.4c7.2 7.5 9 23.1 9 23.1h-12.7c.4-1.2-2.1-9.2-4.5-12.5l-9.5 13.1c2.9 2.7 12.8 7 12.8 19.4 0 11.1-8.9 18.7-20.4 18.7-13.1 0-19.3-7.9-19.4-17.9-.1-7.5 5.1-13.7 7.9-17.2-4.4-1.5-18.7-9.6-18.7-24.7 0-12.2 10.9-21.5 24.1-21.3 7.3 0 17.9 4.5 22.4 9.2l5.8-7.2h16.4m-30.1 17.4c-3.1-2.9-10.2-6.6-14.9-6.6-4 .4-9.2 3.4-9.2 9.3 0 0-.8 5.7 11.5 13.8l12.6-16.5m92.5 2.7c0 12.3-7.8 18.7-14.5 21.1 2.1 1.7 11.6 4.2 11.6 16.3 0 14.1-12.3 19.7-24 19.7h-34.9v-77.2h40.2c8.3-.1 21.6 6.3 21.6 20.1m198.5 56.7h-14.5v-76.8h14.5v76.8zm-72.3-32.4v13.9s-3.3.7-6.8 0c-4.5-1.1-8.6-4.6-10.9-7.4v5.7H938v-56.7h14.8v26c-.9 17.6 9.4 20.6 17.5 18.5m-35.7 0v13.9s-3.4.7-6.7 0c-4.5-1.1-8.5-4.6-10.8-7.4v5.7h-14.9v-56.7h15.2v26c-.9 17.6 9.4 20.6 17.2 18.5m90.9-19.6c.5 16.7-8.6 34.2-28.3 34.3-17.6.4-28.3-14.4-28.3-28.6 0-18.5 12.7-31.7 29.9-31.7 13.5 0 24.1 9.6 26 19.4h-15.3c-2.6-4.5-6.1-6.4-11.5-6.4-7.4 0-14.5 5.6-14.5 13h42m-125.2-24.9c-1.4 2.2-2.5 8.7-2.5 11.3 0 0 .3 18.3 0 29.4-.1 12.7-11.9 17.6-23.5 17.6-18.3 0-24.9-8.5-24.9-18.4h13.1c1.1 7 6.1 8.2 10.5 8.2 9 0 10.8-6.2 10.7-7.6-.5-5.1-7.8-4.2-16.5-5.7-16.5-2.3-21.1-11.3-21.1-18.5 0-11.8 11.3-17.8 21.5-17.8 8.7 0 14.5 4.1 17.1 6.2.5-2.3 1.1-4.9 1.1-4.6h14.5m-75 56.1c0-8.8-8.6-10.1-12.2-10.1h-16.7v18.9h17.2c5.4 0 11.7-2.7 11.7-8.8m183.9-20.4h-25c0 7.1 6.1 11.9 12.9 11.8 6.6 0 12.1-4.8 12.1-11.8M827 686.1c0-8.2-9.4-10.4-12-10.4h-18.2v22.7H814c12 0 13-7.7 13-12.3m56.8 6.1c.9-8.2 0-11.6-2.2-14.4-3.1-4-11.1-4.1-11.1-4.1-1.2-.4-9.4.4-9.6 6.6.1 7.2 9 8.4 22.9 11.9"/></g></g></svg>