<svg xmlns="http://www.w3.org/2000/svg" viewBox="0 0 600 108"><path d="M580.3 30.5c-10.9 0-16.8 5.5-20.6 9.7-1.7 1.9-2.2 2.7-3 2.7s-1-.9-1.8-2.5a16.49 16.49 0 00-15.6-9.6c-10.8 0-17.3 6.4-20.8 9.9-.8.8-2.2 1.3-2.2-.4v-6.2c0-2.5-.7-2.5-4.7-2.5s-5.2 0-5.2 2.5v71.2c0 1.9 1.2 1.9 5.1 1.9 3.1 0 5 .1 5-1.9V69.7c0-17.5 8.3-28.8 18.8-28.9 10.7 0 12.7 9.6 12.7 17v47.8c0 2.1 1.9 1.5 4.8 1.5s5.1.6 5.1-1.5v-36c0-17.5 7.9-28.8 20.2-28.9 9.2 0 11.8 7.5 11.8 14.9v49c0 2.5.7 2.4 4.8 2.4s5.3-.2 5.3-2.4V52.9c-.1-14-8.4-22.5-19.7-22.4M474 2.7c0-1.7-.2-2.7-2-2.7l-16.9.3c-1.2 0-1.1 1-1.1 4.6 0 2.6-.1 4.3 1.1 4.3 6.6 0 8.6 2.9 8.6 7.2v88.1c0 2.3-.5 2.4 4.9 2.4 5.6 0 5.3.2 5.3-2.4V2.7zm-333 34c6.9 0 16.5 5.6 16.5 14.7 0 6.4-.7 7.2-2.3 7.2l-31.9.1c-1.9 0-2-1-2-2.8-.1-7.6 7-19.2 19.7-19.2m-18.3 31.1l37.3-.1c3 0 5.3-.9 6.2-3.5a33.22 33.22 0 001.3-13.5C166.3 32.3 150.9 27 141.3 27c-21 0-32.9 17.6-32.9 41.3 0 13.3 2.6 20 8.1 28.2s15.9 11.2 24.4 11.2 22.6-5.1 25.6-8.6c.6-.7.6-2.8.2-5-.4-1.9-1.1-4.5-2.5-4-2.3.9-9.3 6.9-21.9 6.9-21.7.1-22-20.8-22.2-24.9s.6-4.3 2.6-4.3m188.9 25.9c-2.3.9-4.4 2.5-10.5 2.5-11.1 0-13.6-8.7-13.6-16V40.4c.1-1.6.6-2 2.7-2l21.3-.1c.8 0 .7-1.5.7-5.1s.2-5.2-1.2-5.2l-20.8.1c-1.9 0-2.7-.6-2.7-3.3V6.1c0-2.9-.3-3-5.1-1.5-5.3 1.6-5.3 1.6-5.3 3.7v16.5c0 2-.4 3.3-2.8 3.3h-8c-1.9 0-1.3 2.2-1.3 5.1s0 5.2 1.3 5.2l8.3-.1c1.5.1 2.4.2 2.4 1.8v33.5c.1 19.1 2.7 23.3 6.9 27.7a19.79 19.79 0 0014.4 5.6c4.3 0 10.3-1.7 14.3-3.5 2-.9 2.2-1.6 1.5-5.9-.7-4.1-1.2-4.3-2.5-3.8m-86.8-30.9c-6.8-3.1-16.3-5.1-16.3-14.4 0-7.9 7.5-11.7 12.6-11.7a35.12 35.12 0 0112.2 2.8c4.5 1.9 4.4.3 6.1-2.7 1.3-2.1 1.6-4.1 1.1-4.6-2.8-2.4-10.5-5.5-19.3-5.4-16 .1-24.4 10.2-24.3 21.7 0 11 9.4 18 18.1 22.1 9 4.1 18.1 7.2 18.2 14.8 0 5-4.4 12.4-13.6 12.4-7.7 0-15.6-4.6-18.3-5.9-1.5-.7-2.1.9-3.3 3.3-1.5 3.1-2.5 5.4-1.4 6.1 5.5 3.4 15 6.7 22.8 6.7 14.4-.1 25.5-8.8 25.5-22.8 0-14.9-13.4-19.2-20.1-22.4m180.9-26.1c6.9 0 16.5 5.6 16.5 14.7 0 6.4-.7 7.2-2.3 7.2l-31.9.1c-1.9 0-2-1-2-2.8-.1-7.6 7-19.2 19.7-19.2m-18.3 31.1l37.3-.1c3 0 5.3-.9 6.2-3.5a33.22 33.22 0 001.3-13.5c-1.1-18.5-16.5-23.8-26.1-23.8-21 0-32.9 17.6-32.9 41.3 0 13.3 2.6 20 8.1 28.2s15.9 11.2 24.4 11.2 22.6-5.1 25.6-8.6c.6-.7.6-2.8.2-5-.4-1.9-1.1-4.5-2.5-4-2.3.9-9.3 6.9-21.9 6.9-21.7.1-22-20.8-22.2-24.9s.5-4.2 2.5-4.2M84.7 29.3c-4.2 0-5.3-.3-6 1.3-.2.6-10.8 54.8-10.8 54.8-.4 1.6-.7 2.3-1.6 2.3s-1.3-.4-1.6-1.8L49.5 31.3c-.4-1.6-1.1-2.2-4.8-2.2s-4.5.4-5 2.2L25.1 85.9c-.4 1.4-.8 1.8-1.7 1.8s-1.2-1.6-1.6-3.2L10.4 30.4c-.6-2-1.7-1.5-5.5-1.5S0 29.1 0 31.2c0 1 16.1 69.6 16.8 72.5.8 3.1 1.9 4.1 6.2 4.1 5.1 0 5.7-2.2 6.5-4.1l13.8-49.1c.5-1.4.5-2.1 1.5-2.1s1.1.8 1.5 2.1l13.8 49.1c.8 1.9 1.4 4.1 6.5 4.1 4.3 0 5.4-1 6.2-4.1.7-2.9 16.4-72 16.4-72.8-.2-1.9-1.7-1.6-4.5-1.6" fill="#565458"/></svg>