<svg xmlns="http://www.w3.org/2000/svg" width="694.2" height="218.8" viewBox="0 0 694.2 218.8"><g fill="#0077ae"><path d="M.3 135.9h38c17.4 0 35.1 3.8 35.1 22.6 0 7.1-3.9 14.2-11.8 16.4v.7c9.8 3.1 16 9.6 16 19.4 0 16.8-17.1 22.5-32.9 22.5H.3v-81.6m33.2 31.4c4.8 0 10.1-.4 10.1-6.1 0-6.1-6.1-5.6-10.8-5.6h-2.3v11.7h3zm-3 30.7h3.7c5.4 0 13.1-.1 13.1-6.8 0-6.8-8.3-6.7-13.6-6.7h-3.2V198zM82.7 135.9h65.8v22.3h-29.9v7.8H146v21.2h-27.4v8h31v22.3H82.7v-81.6M194.8 135.9l12.3 21.3h1.2c1.2-2.6 2.2-5.2 3.6-7.7l7.9-13.6h45l-37.7 46.4v35.2H188v-35.2l-38.4-46.4h45.2"/><path d="M378 176.9c0 26.2-29.3 41.9-65.4 41.9-36.1 0-65.4-15.7-65.4-41.9 0-25.6 29.5-42.3 65.4-42.3 35.9 0 65.4 16.6 65.4 42.3m-87.5.4c0 9.3 9.1 15.7 22.1 15.7 13 0 22.1-6.4 22.1-15.7 0-8.7-8.5-15.9-22.1-15.9-13.7 0-22.1 7.3-22.1 15.9zM517.5 135.9h67.9c61.6 0 108.8 12 108.8 42 0 24.2-38.5 39.6-92.3 39.6h-84.5v-81.6m66.8 57.1h4.1c22.2 0 39.2-4.5 39.2-15.3 0-11.5-14.9-16.3-39.2-16.3h-4.1V193z"/><path d="M679.1 146.2a6.7 6.7 0 1 1 6.7 6.7c-3.8-.1-6.7-3-6.7-6.7m12.4 0c0-3.2-2.6-5.6-5.7-5.6s-5.7 2.5-5.7 5.6c0 3.1 2.6 5.6 5.7 5.6 3 0 5.7-2.5 5.7-5.6zm-2.5 3.6h-1.2l-2.2-3.4h-1.2v3.4h-1v-7.3h3.2c1.3 0 2.6.4 2.6 1.9 0 1.4-1 2-2.3 2l2.1 3.4zm-3.5-4.4c.9 0 2.5.2 2.5-1 0-.8-1-.9-1.8-.9h-2v1.9h1.3zM427.5 135.9h-44.1v81.6h43.9V176l38.9 41.5h43.9v-81.6h-43.9v42.3l-38.7-42.3M13.5 16.5h3.7c12.6 0 23 2.6 23 17.8 0 15.5-10.5 18.1-23.3 18.1h-3.4V16.5m0 46.6h8.3c12 0 27.5 3.2 27.5 18.4 0 15.4-13.1 19.1-25.5 19.1H13.5V63.1zM0 112.6h25.2c19.1 0 37.6-8.6 37.6-30.3 0-12.6-8.9-25.1-21.7-27.4v-.3c7.3-3.4 11.6-12.6 11.6-20.5 0-24.4-19.1-29.7-39.5-29.7H0v108.2zM70.6 4.5h58.1v12.4H84.1v30.3h43.3v12.3H84.1v40.7h44.6v12.4H70.6V4.5M154.8 16.9h4.7c27.5 0 51.3 10.2 51.3 41.7 0 31.4-23.8 41.7-51.3 41.7h-4.7V16.9m-13.5 95.7h21.9c34.1 0 61.1-17.8 61.1-54.6 0-36-27.5-53.5-60.6-53.5h-22.4v108.1zM275.7 16.5h3.7c12.6 0 23 2.6 23 17.8 0 15.5-10.5 18.1-23.3 18.1h-3.4V16.5m0 46.6h8.3c12 0 27.5 3.2 27.5 18.4 0 15.4-13.1 19.1-25.5 19.1h-10.3V63.1zm-13.5 49.5h25.2c19.1 0 37.6-8.6 37.6-30.3 0-12.6-8.9-25.1-21.7-27.4v-.3c7.3-3.4 11.6-12.6 11.6-20.5 0-24.4-19.1-29.7-39.5-29.7h-13.2v108.2zM395.1 73.2h-38.4l19.2-43.7 19.2 43.7m5.6 12.4l12.3 27h14.5L375.9 0l-51.6 112.6h14.5l12.3-27h49.6zM451.2 112.6h-13.5V16.9h-25.6V4.5h64.8v12.4h-25.7v95.7M549.1 48.1V4.5h13.5v108.1h-13.5V60.7h-51.5v51.9h-13.4V4.5h13.4v43.6h51.5M631.3 59.3l23.9 29.3c-6.7 6.7-14.7 14.3-24.8 14.3-10.3 0-20.1-9.6-20.1-19.9 0-10.3 12.2-17.6 19.6-22.8l1.4-.9m2.9-17l-3.6-4.6c-3.2-4-6.5-8-6.5-13.5 0-6.9 5.6-11.5 12.1-11.5 7.2 0 12.7 4.2 12.7 11.8 0 7.9-7.5 12.3-12.9 16.6l-1.8 1.2zm40.8 70.3h16.6l-19.3-23.9 13.2-15.5-8.6-8.9-12.6 14.6-22.5-27.2c9-6.6 19.6-14.8 19.6-27 0-14.2-11.7-22.5-24.9-22.5-14.2 0-24.9 8.7-24.9 23.6 0 9.2 5.7 17.2 11.8 23.7l-6.7 4.9c-10.3 7.5-18.8 14.9-18.8 28.7 0 18.6 15 31.8 33 31.8 12.8 0 24.2-7.3 32.4-16.9l11.7 14.6z"/></g></svg>
