<?xml version="1.0" encoding="utf-8"?>
<!-- Generator: Adobe Illustrator 22.1.0, SVG Export Plug-In . SVG Version: 6.00 Build 0)  -->
<svg version="1.1" id="svg2" xmlns:svg="http://www.w3.org/2000/svg"
	 xmlns="http://www.w3.org/2000/svg" xmlns:xlink="http://www.w3.org/1999/xlink" x="0px" y="0px" viewBox="0 0 730.7 104.2"
	 style="enable-background:new 0 0 730.7 104.2;" xml:space="preserve">
<style type="text/css">
	.st0{fill:#231F20;}
</style>
<g id="g11" transform="matrix(1.25,0,0,-1.25,-572.47125,931.61625)">
	<g id="g5385">
		<path id="path21" class="st0" d="M695.6,699.8h-25c0,7.3,6.2,12,12.7,11.9C690.1,711.7,695.6,706.9,695.6,699.8 M539.7,709.5
			c-2.7,20.6-20.4,35.8-40.2,35.8c-23.1,0-41.6-17.9-41.6-41.8c0-25.4,23-40.7,41.2-40.7c16.3,0,36.5,11.2,39.8,32.4h-15.2
			c-1.8-7-10-17.1-24.2-17.1c-15.2,0-26,10.8-26.5,25.1c-0.4,14.8,11.1,26.9,26.5,26.9c12.3,0,22.4-9.3,25.4-20.6H539.7
			 M658.9,663.5v11.1c-1.6,0.5-11.3-2.1-11.3,5.9v30.9h9.8v10.7h-9.8v17.8h-14.9v-17.4h-7.4v-11.1h7.4v-34.4
			c0-4.7,2.1-13.4,14.1-13.4H658.9 M574.5,708.5v13.9c0,0-3.4,0.7-6.7,0c-4.4-1.1-8.8-4.6-10.9-7.4v5.7h-14.5v-57h14.9v26.1
			C556.4,707.7,566.7,710.7,574.5,708.5 M712,688.8c0.6,16.8-8.5,34.3-28.3,34.5c-17.8,0.4-28.6-14.4-28.6-28.7
			c0-18.6,12.7-31.8,30.1-31.8c13.8,0,23.9,9.6,26.2,19.5h-15.3c-3-4.5-6.3-6.6-11.6-6.6c-7.5,0-14.6,5.7-14.6,13.1H712
			 M626.8,663.8c-1,1.8-1.9,6.3-2.2,9.6v31.3c-0.3,12.9-11.9,17.8-23.7,17.8c-19,0-25-8.5-25.3-18.6h13c1.2,7.1,6.3,8.3,10.8,8.3
			c9.2,0,11.1-6.1,10.7-7.8c-0.4-5.1-7.7-4.3-16.8-5.8c-16.1-2.3-20.8-11.3-20.8-18.4c0-11.9,11.3-17.9,21.3-17.9
			c9,0,14.8,4.1,17.4,6.2c0.7-2.3,1.1-4.9,1.1-4.6H626.8 M609.2,692.4c1-8.2-0.3-11.6-2.3-14.4c-3.4-4.1-11.5-4.2-11.5-4.2
			c-1.2-0.4-9.2,0.4-9.6,6.7C585.7,687.6,594.7,688.8,609.2,692.4"/>
		<path id="path23" class="st0" d="M750.7,724.5c0-4.8-4.9-7.7-7.7-9.8c-2.2,2.9-5.9,5.9-6.3,10c-0.1,3.3,2.9,6.7,7,6.7
			C747.9,731.3,750.7,727.9,750.7,724.5 M781.7,663.8l-13.2,17.4c7.2,7.5,9,23.1,9,23.1h-12.7c0.4-1.2-2.1-9.2-4.5-12.5l-9.5,13.1
			c2.9,2.7,12.8,7,12.8,19.4c0,11.1-8.9,18.7-20.4,18.7c-13.1,0-19.3-7.9-19.4-17.9c-0.1-7.5,5.1-13.7,7.9-17.2
			c-4.4-1.5-18.7-9.6-18.7-24.7c0-12.2,10.9-21.5,24.1-21.3c7.3,0,17.9,4.5,22.4,9.2l5.8-7.2H781.7 M751.6,681.3
			c-3.1-2.9-10.2-6.6-14.9-6.6c-4,0.4-9.2,3.4-9.2,9.3c0,0-0.8,5.7,11.5,13.8L751.6,681.3 M844.1,684c0,12.3-7.8,18.7-14.5,21.1
			c2.1,1.7,11.6,4.2,11.6,16.3c0,14.1-12.3,19.7-24,19.7h-34.9v-77.2h40.2C830.8,663.8,844.1,670.2,844.1,684 M1042.6,740.7h-14.5
			v-76.8h14.5V740.7z M970.3,708.3v13.9c0,0-3.3,0.7-6.8,0c-4.5-1.1-8.6-4.6-10.9-7.4v5.7H938v-56.7h14.8v26
			C951.9,707.4,962.2,710.4,970.3,708.3 M934.6,708.3v13.9c0,0-3.4,0.7-6.7,0c-4.5-1.1-8.5-4.6-10.8-7.4v5.7h-14.9v-56.7h15.2v26
			C916.5,707.4,926.8,710.4,934.6,708.3 M1025.5,688.7c0.5,16.7-8.6,34.2-28.3,34.3c-17.6,0.4-28.3-14.4-28.3-28.6
			c0-18.5,12.7-31.7,29.9-31.7c13.5,0,24.1,9.6,26,19.4h-15.3c-2.6-4.5-6.1-6.4-11.5-6.4c-7.4,0-14.5,5.6-14.5,13H1025.5
			 M900.3,663.8c-1.4,2.2-2.5,8.7-2.5,11.3c0,0,0.3,18.3,0,29.4c-0.1,12.7-11.9,17.6-23.5,17.6c-18.3,0-24.9-8.5-24.9-18.4h13.1
			c1.1,7,6.1,8.2,10.5,8.2c9,0,10.8-6.2,10.7-7.6c-0.5-5.1-7.8-4.2-16.5-5.7c-16.5-2.3-21.1-11.3-21.1-18.5
			c0-11.8,11.3-17.8,21.5-17.8c8.7,0,14.5,4.1,17.1,6.2c0.5-2.3,1.1-4.9,1.1-4.6H900.3 M825.3,720c0-8.8-8.6-10.1-12.2-10.1h-16.7
			v18.9h17.2C819,728.8,825.3,726.1,825.3,720 M1009.2,699.6h-25c0,7.1,6.1,11.9,12.9,11.8C1003.7,711.4,1009.2,706.6,1009.2,699.6
			 M827,686.1c0-8.2-9.4-10.4-12-10.4h-18.2v22.7H814C826,698.4,827,690.7,827,686.1 M883.8,692.2c0.9-8.2,0-11.6-2.2-14.4
			c-3.1-4-11.1-4.1-11.1-4.1c-1.2-0.4-9.4,0.4-9.6,6.6C861,687.5,869.9,688.7,883.8,692.2"/>
	</g>
</g>
</svg>
